<svg width="83" height="79" viewBox="0 0 83 79" fill="none" xmlns="http://www.w3.org/2000/svg">
<g filter="url(#filter0_dd_84801_96)">
<path d="M74.5757 47.7H8.6103C6.30452 47.7 4.5 49.6 4.5 52V55.5C4.5 57.9 6.40477 59.8 8.6103 59.8H9.51257V60.9C9.51257 66.4 13.8234 71 19.1367 71H63.8488C69.1621 71 73.4729 66.5 73.4729 60.9V59.8H74.3752C76.681 59.8 78.4855 57.9 78.4855 55.5V52C78.686 49.7 76.7812 47.7 74.5757 47.7ZM70.6659 60.9C70.6659 64.8 67.6583 67.9 63.949 67.9H19.1367C15.4274 67.9 12.4199 64.7 12.4199 60.9V59.8H70.6659V60.9ZM75.7787 55.5C75.7787 56.2 75.1772 56.8 74.5757 56.8H8.51005C7.80829 56.8 7.30704 56.2 7.30704 55.5V52C7.30704 51.3 7.90855 50.7 8.51005 50.7H74.4754C75.1772 50.7 75.6784 51.3 75.6784 52C75.7787 52 75.7787 55.5 75.7787 55.5Z" fill="#83B3D3"/>
<path d="M20.1392 39.4L25.5528 43.5L30.8661 39.4L36.1794 43.5L41.4927 39.4L46.9063 43.5L52.2196 39.4L57.5329 43.5L62.9465 39.4L68.2598 43.5L74.4754 38.8L72.7711 36.3L68.2598 39.7L62.9465 35.6L57.5329 39.7L52.2196 35.6L46.9063 39.7L41.4927 35.6L36.1794 39.7L30.8661 35.6L25.5528 39.7L20.1392 35.6L14.8259 39.7L10.3146 36.3L8.6103 38.8L14.8259 43.5L20.1392 39.4Z" fill="#83B3D3"/>
<path d="M12.5201 32.5H73.4729C73.4729 31.9 73.5732 31.3 73.5732 30.6C73.5732 30.2 73.5732 29.8 73.5732 29.4C72.8714 13.7 58.8362 1 41.593 1C24.2495 1 10.2143 13.7 9.51257 29.5C9.51257 29.9 9.51257 30.3 9.51257 30.7C9.51257 31.3 9.50815 31.9 9.6084 32.5H12.5201ZM41.593 4C57.2322 4 70.0644 15.3 70.6659 29.5H12.5201C13.1216 15.4 25.9538 4 41.593 4Z" fill="#83B3D3"/>
<path d="M41.593 18.3C42.645 18.3 43.4978 17.4046 43.4978 16.3C43.4978 15.1954 42.645 14.3 41.593 14.3C40.541 14.3 39.6882 15.1954 39.6882 16.3C39.6882 17.4046 40.541 18.3 41.593 18.3Z" fill="#83B3D3"/>
<path d="M33.7734 13.2C34.8254 13.2 35.6782 12.3046 35.6782 11.2C35.6782 10.0954 34.8254 9.2 33.7734 9.2C32.7214 9.2 31.8686 10.0954 31.8686 11.2C31.8686 12.3046 32.7214 13.2 33.7734 13.2Z" fill="#83B3D3"/>
<path d="M49.3123 13.2C50.3643 13.2 51.2171 12.3046 51.2171 11.2C51.2171 10.0954 50.3643 9.2 49.3123 9.2C48.2604 9.2 47.4076 10.0954 47.4076 11.2C47.4076 12.3046 48.2604 13.2 49.3123 13.2Z" fill="#83B3D3"/>
</g>
<defs>
<filter id="filter0_dd_84801_96" x="-0.5" y="0" width="83" height="80" filterUnits="userSpaceOnUse" color-interpolation-filters="sRGB">
<feFlood flood-opacity="0" result="BackgroundImageFix"/>
<feColorMatrix in="SourceAlpha" type="matrix" values="0 0 0 0 0 0 0 0 0 0 0 0 0 0 0 0 0 0 127 0" result="hardAlpha"/>
<feOffset dy="4"/>
<feGaussianBlur stdDeviation="2"/>
<feComposite in2="hardAlpha" operator="out"/>
<feColorMatrix type="matrix" values="0 0 0 0 0 0 0 0 0 0 0 0 0 0 0 0 0 0 0.25 0"/>
<feBlend mode="normal" in2="BackgroundImageFix" result="effect1_dropShadow_84801_96"/>
<feColorMatrix in="SourceAlpha" type="matrix" values="0 0 0 0 0 0 0 0 0 0 0 0 0 0 0 0 0 0 127 0" result="hardAlpha"/>
<feOffset dy="4"/>
<feGaussianBlur stdDeviation="2"/>
<feComposite in2="hardAlpha" operator="out"/>
<feColorMatrix type="matrix" values="0 0 0 0 0 0 0 0 0 0 0 0 0 0 0 0 0 0 0.25 0"/>
<feBlend mode="normal" in2="effect1_dropShadow_84801_96" result="effect2_dropShadow_84801_96"/>
<feBlend mode="normal" in="SourceGraphic" in2="effect2_dropShadow_84801_96" result="shape"/>
</filter>
</defs>
</svg>
